<?xml version="1.0" encoding="utf-8"?>
<!-- Svg Vector Icons : http://www.onlinewebfonts.com/icon -->
<!DOCTYPE svg PUBLIC "-//W3C//DTD SVG 1.1//EN" "http://www.w3.org/Graphics/SVG/1.1/DTD/svg11.dtd">
<svg version="1.1" xmlns="http://www.w3.org/2000/svg" xmlns:xlink="http://www.w3.org/1999/xlink" x="0px" y="0px" viewBox="0 0 256 256" enable-background="new 0 0 256 256" xml:space="preserve">
<metadata> Svg Vector Icons : http://www.onlinewebfonts.com/icon </metadata>
<g><g><g><path stroke-width="6" fill-opacity="0" stroke="#000000"  d="M45.2,10.7c-4.1,1-7.2,2.8-10.4,6c-5.1,5-7.4,11.9-6.2,18.7c0.9,5.3,2.6,8.4,7.7,13.7c2.4,2.6,4.8,5.7,5.4,6.8l1.1,2.2V128v69.9l-1.1,2.2c-0.6,1.2-3,4.2-5.4,6.8c-5.1,5.4-7,8.8-7.7,14.1c-1,6.8,1.2,13.4,6.3,18.5c3.5,3.5,7.2,5.4,12.1,6.3c14.3,2.4,27.6-10.8,25.1-25.1c-0.9-5.3-2.6-8.3-7.6-13.7c-2.4-2.6-4.9-5.7-5.5-6.9l-1.1-2.2l-0.1-31.3l-0.1-31.2h22.7h22.7l1.2,2.6c1.8,3.6,5.8,7.7,9.4,9.5l3,1.5l-0.1,24.4c-0.1,28.7,0.4,26-6.4,33c-2.9,3-4.6,5.3-5.8,7.6c-6.7,13.4,1.4,29.1,16.3,31.6c14.3,2.4,27.5-10.8,25.1-25.1c-0.9-5.3-2.6-8.3-7.6-13.7c-2.4-2.6-4.9-5.7-5.5-6.9l-1.1-2.2l-0.1-24.5l-0.1-24.4l2.4-1.2c3.2-1.5,8.5-6.8,10-10l1.1-2.4l27.8-0.1c27.4-0.1,27.8-0.1,29.1-1.1c0.7-0.6,1.7-1.7,2.2-2.5c0.9-1.5,0.9-2.6,1.2-37.5l0.2-36l1.1-2.2c0.6-1.2,3-4.3,5.4-6.8c4.9-5.3,6.8-8.7,7.7-13.7C222.2,21,209,7.9,194.7,10.3c-12.1,2-20.3,13.2-18.4,25.1c0.7,5,3,9,7.9,14.2c2.3,2.4,4.7,5.3,5.2,6.5l1.1,2.1l0.1,31.2l0.1,31.3h-22.7h-22.7l-1.4-2.7c-1.7-3.4-6.7-8.3-9.8-9.7l-2.4-1.2l0.1-24.4l0.1-24.5l1.1-2.2c0.6-1.2,3-4.3,5.4-6.8c4.9-5.3,6.8-8.7,7.7-13.7c2.4-14.3-10.7-27.5-25.1-25.1c-4.9,0.8-8.7,2.8-12.2,6.3c-5.1,5.1-7.3,11.7-6.3,18.5c0.7,5.3,2.6,8.7,7.7,14.1c7.1,7.5,6.5,4.7,6.6,33.4l0.1,24.5l-2.5,1.2c-3.6,1.8-7.8,5.8-9.6,9.4l-1.6,3H80.5H57.8l0.1-31.3L58,58.1l1.1-2.2c0.6-1.2,3-4.3,5.4-6.8c2.8-3,4.8-5.6,5.7-7.5C78.3,25.1,63.1,6.3,45.2,10.7z"/><path stroke-width="6" fill-opacity="0" stroke="#000000"  d="M175.9,205.5v33.2h7.4h7.4v-11.1v-11.1h5.1h5.1l3.8,3.8c2.3,2.3,4.4,4.9,5.3,6.6c1.6,2.9,2.9,7.6,2.9,10.2v1.5h7.4h7.5l-0.3-3.8c-0.7-8.2-2.5-12.3-7.7-17.5l-3.6-3.6l1.8-1.2c2.8-1.9,5.9-5.6,7.3-8.7c3.9-8.4,2.4-17.7-3.9-24.6c-3-3.2-7.6-5.8-11.8-6.6c-1.3-0.3-9.5-0.5-18.1-0.5h-15.6V205.5L175.9,205.5z M209.3,188.2c2.4,1.8,3.2,3.3,3.2,6.2s-0.7,4.4-3.2,6.2c-1.2,0.9-2,1-10,1.1l-8.7,0.1v-7.4V187l8.7,0.1C207.3,187.3,208.2,187.4,209.3,188.2z"/></g></g></g>
</svg>